<?xml version="1.0" encoding="UTF-8" standalone="no"?>
<svg
   xmlns:dc="http://purl.org/dc/elements/1.1/"
   xmlns:cc="http://creativecommons.org/ns#"
   xmlns:rdf="http://www.w3.org/1999/02/22-rdf-syntax-ns#"
   xmlns:svg="http://www.w3.org/2000/svg"
   xmlns="http://www.w3.org/2000/svg"
   xmlns:sodipodi="http://sodipodi.sourceforge.net/DTD/sodipodi-0.dtd"
   xmlns:inkscape="http://www.inkscape.org/namespaces/inkscape"
   id="Layer_1"
   data-name="Layer 1"
   viewBox="0 0 256 384"
   version="1.1"
   sodipodi:docname="mouse-middle-new.svg"
   inkscape:version="0.92.2 5c3e80d, 2017-08-06">
  <metadata
     id="metadata23">
    <rdf:RDF>
      <cc:Work
         rdf:about="">
        <dc:format>image/svg+xml</dc:format>
        <dc:type
           rdf:resource="http://purl.org/dc/dcmitype/StillImage" />
        <dc:title>mouse-right-new</dc:title>
      </cc:Work>
    </rdf:RDF>
  </metadata>
  <sodipodi:namedview
     pagecolor="#ffffff"
     bordercolor="#666666"
     borderopacity="1"
     objecttolerance="10"
     gridtolerance="10"
     guidetolerance="10"
     inkscape:pageopacity="0"
     inkscape:pageshadow="2"
     inkscape:window-width="1440"
     inkscape:window-height="767"
     id="namedview21"
     showgrid="false"
     inkscape:zoom="1.2291667"
     inkscape:cx="111.72881"
     inkscape:cy="289.62712"
     inkscape:window-x="0"
     inkscape:window-y="1"
     inkscape:window-maximized="1"
     inkscape:current-layer="layer2" />
  <defs
     id="defs4">
    <style
       id="style2">.cls-1{fill:#f5f5f5;}.cls-2{fill:#5f5f5f;}.cls-3{fill:none;}.cls-3,.cls-4{stroke:#000;stroke-miterlimit:10;stroke-width:16px;}.cls-4{fill:#fff;}</style>
  </defs>
  <title
     id="title6">mouse-right-new</title>
  <rect
     class="cls-1"
     x="4.67"
     y="7"
     width="246.67"
     height="370"
     rx="96.35"
     id="rect8" />
  <line
     class="cls-3"
     y1="176"
     x2="256"
     y2="176"
     id="line14" />
  <line
     class="cls-3"
     x1="128"
     y1="8"
     x2="128"
     y2="176"
     id="line16" />
  <g
     inkscape:groupmode="layer"
     id="layer1"
     inkscape:label="Layer 1">
    <path
       style=""
       d="M284,80a84.3,84.3,0,0,1,84,84V348a84.3,84.3,0,0,1-84,84H228a84.3,84.3,0,0,1-84-84V164a84.3,84.3,0,0,1,84-84h56m0-16H228c-55,0-100,45-100,100V348c0,55,45,100,100,100h56c55,0,100-45,100-100V164C384,109,339,64,284,64Z"
       transform="translate(-128,-64)"
       id="path12" />
  </g>
  <g
     inkscape:groupmode="layer"
     id="layer2"
     inkscape:label="Layer 2">
    <polygon
       class="cls-2"
       points="192,16 128,16 128,176 240,176 240,84.57 240,59.64 224,30.55 "
       id="polygon10"
       transform="matrix(-0.39467318,0,0,0.55254238,202.51817,39.159322)"
       style="fill:#5f5f5f" />
  </g>
  <g
     inkscape:groupmode="layer"
     id="layer3"
     inkscape:label="Layer 3"
     style="opacity:0.94">
    <rect
       style="fill:#ffffff;fill-opacity:0"
       class="cls-4"
       x="104"
       y="48"
       width="48"
       height="96"
       rx="21"
       id="rect18" />
  </g>
</svg>
