<svg id="Layer_1" data-name="Layer 1" xmlns="http://www.w3.org/2000/svg" viewBox="0 0 256 384"><defs><style>.cls-1{fill:#f5f5f5;}.cls-2{fill:#5f5f5f;}.cls-3{fill:none;}.cls-3,.cls-4{stroke:#000;stroke-miterlimit:10;stroke-width:16px;}.cls-4{fill:#fff;}</style></defs><title>mouse-right-new</title><rect class="cls-1" x="4.67" y="7" width="246.67" height="370" rx="96.35"/><polygon class="cls-2" points="128 176 240 176 240 84.57 240 59.64 224 30.55 192 16 128 16 128 176"/><path d="M284,80a84.3,84.3,0,0,1,84,84V348a84.3,84.3,0,0,1-84,84H228a84.3,84.3,0,0,1-84-84V164a84.3,84.3,0,0,1,84-84h56m0-16H228c-55,0-100,45-100,100V348c0,55,45,100,100,100h56c55,0,100-45,100-100V164C384,109,339,64,284,64Z" transform="translate(-128 -64)"/><line class="cls-3" y1="176" x2="256" y2="176"/><line class="cls-3" x1="128" y1="8" x2="128" y2="176"/><rect class="cls-4" x="104" y="48" width="48" height="96" rx="21"/></svg>