<svg id="Layer_1" data-name="Layer 1" xmlns="http://www.w3.org/2000/svg" viewBox="0 0 512 512"><defs><style>.cls-1{fill:#f5f5f5;}.cls-2{fill:#5f5f5f;}.cls-3{fill:#fff;stroke:#000;stroke-miterlimit:10;stroke-width:16px;}</style></defs><title>mouse-right</title><rect class="cls-1" x="128" y="64" width="256" height="384" rx="100"/><polygon class="cls-2" points="256 240 368 240 368 148.57 368 123.64 352 94.55 320 80 256 80 256 240"/><path d="M284,80a84.3,84.3,0,0,1,84,84V348a84.3,84.3,0,0,1-84,84H228a84.3,84.3,0,0,1-84-84V164a84.3,84.3,0,0,1,84-84h56m0-16H228c-55,0-100,45-100,100V348c0,55,45,100,100,100h56c55,0,100-45,100-100V164c0-55-45-100-100-100Z"/><line class="cls-3" x1="128" y1="240" x2="384" y2="240"/><line class="cls-3" x1="256" y1="72" x2="256" y2="240"/><rect class="cls-3" x="232" y="112" width="48" height="96" rx="21"/></svg>