<svg xmlns="http://www.w3.org/2000/svg" xmlns:xlink="http://www.w3.org/1999/xlink" width="70.87" height="79.048" viewBox="0 0 70.87 79.048">
  <defs>
    <clipPath id="clip-path">
      <path id="Path_32" data-name="Path 32" d="M40.333-192.391l26.433,15.261a9,9,0,0,1,4.5,7.8v30.522a9,9,0,0,1-4.5,7.8L40.333-115.755a9,9,0,0,1-9,0L4.9-131.016a9,9,0,0,1-4.5-7.8v-30.522a9,9,0,0,1,4.5-7.8l26.433-15.261A9,9,0,0,1,40.333-192.391Z" transform="translate(-0.397 193.597)" fill="#092642" clip-rule="evenodd"/>
    </clipPath>
  </defs>
  <g id="Group_12" data-name="Group 12" transform="translate(-152 -713)">
    <g id="Group_7" data-name="Group 7" transform="translate(152 713)" clip-path="url(#clip-path)">
      <path id="Path_31" data-name="Path 31" d="M-4.6-198.6H70.359v83.14H-4.6Z" transform="translate(2.557 196.551)" fill="#092642"/>
    </g>
    <line id="Line_2" data-name="Line 2" x2="37" transform="translate(169.5 752.5)" fill="none" stroke="#fff" stroke-linecap="round" stroke-width="5"/>
    <line id="Line_3" data-name="Line 3" x2="11" y2="11" transform="translate(195.5 741.5)" fill="none" stroke="#fff" stroke-linecap="round" stroke-width="5"/>
    <line id="Line_4" data-name="Line 4" y1="11" x2="11" transform="translate(195.5 752.5)" fill="none" stroke="#fff" stroke-linecap="round" stroke-width="5"/>
  </g>
</svg>
