<?xml version="1.0" encoding="UTF-8" standalone="no"?>
<!-- Generator: Adobe Illustrator 19.0.0, SVG Export Plug-In . SVG Version: 6.00 Build 0)  -->

<svg
   xmlns:dc="http://purl.org/dc/elements/1.1/"
   xmlns:cc="http://creativecommons.org/ns#"
   xmlns:rdf="http://www.w3.org/1999/02/22-rdf-syntax-ns#"
   xmlns:svg="http://www.w3.org/2000/svg"
   xmlns="http://www.w3.org/2000/svg"
   xmlns:sodipodi="http://sodipodi.sourceforge.net/DTD/sodipodi-0.dtd"
   xmlns:inkscape="http://www.inkscape.org/namespaces/inkscape"
   version="1.1"
   id="Layer_2_1_"
   x="0px"
   y="0px"
   viewBox="0 0 166.3 192"
   style="enable-background:new 0 0 166.3 192;"
   xml:space="preserve"
   sodipodi:docname="slot_border_highlight.svg"
   inkscape:version="0.92.2 5c3e80d, 2017-08-06"><metadata
     id="metadata11"><rdf:RDF><cc:Work
         rdf:about=""><dc:format>image/svg+xml</dc:format><dc:type
           rdf:resource="http://purl.org/dc/dcmitype/StillImage" /><dc:title></dc:title></cc:Work></rdf:RDF></metadata><defs
     id="defs9" /><sodipodi:namedview
     pagecolor="#ffffff"
     bordercolor="#666666"
     borderopacity="1"
     objecttolerance="10"
     gridtolerance="10"
     guidetolerance="10"
     inkscape:pageopacity="0"
     inkscape:pageshadow="2"
     inkscape:window-width="1193"
     inkscape:window-height="723"
     id="namedview7"
     showgrid="false"
     inkscape:zoom="1.2291667"
     inkscape:cx="83.150002"
     inkscape:cy="96"
     inkscape:window-x="0"
     inkscape:window-y="0"
     inkscape:window-maximized="0"
     inkscape:current-layer="Layer_2_1_" /><style
     type="text/css"
     id="style2">
	.st0{fill:#EB5B5C;}
</style><path
     class="st0"
     d="M158.3,43.4L91.2,4.6c-5-2.9-11-2.9-16,0L8,43.4c-5,2.9-8,8.1-8,13.9v77.5c0,5.7,3,11,8,13.9l67.1,38.8  c5,2.9,11,2.9,16,0l67.1-38.8c5-2.9,8-8.1,8-13.9V57.2C166.3,51.5,163.2,46.2,158.3,43.4z M155.2,128.4c0,5.7-3,11-7.9,14  l-56.1,32.4c-5,2.9-11,2.9-16,0l-56.1-32.4c-5-2.9-8-8.2-8-13.9V63.7c0-5.8,3-11,8-13.9l56-32.4c5-2.9,11-2.9,16,0l56.1,32.3  c5,2.9,8,8.2,8,13.9V128.4z"
     id="path4"
     style="fill:#092642;fill-opacity:1" /></svg>