<?xml version="1.0" encoding="utf-8"?>
<!-- Generator: Adobe Illustrator 19.0.0, SVG Export Plug-In . SVG Version: 6.00 Build 0)  -->
<svg version="1.1" xmlns="http://www.w3.org/2000/svg" xmlns:xlink="http://www.w3.org/1999/xlink" x="0px" y="0px"
	 viewBox="0 0 166.3 192" style="enable-background:new 0 0 166.3 192;" xml:space="preserve">
<style type="text/css">
	.st0{fill:#F5F5F5;}
</style>
<g id="Layer_1">
</g>
<g id="Layer_2">
	<path id="XMLID_3_" class="st0" d="M166.3,144l-83.1,48L0,144l0-96L83.1,0l83.1,48V144z M155.2,128.4V63.6c0-5.7-3-11-8-13.9
		L91.1,17.4c-5-2.9-11-2.9-16,0L19.1,49.8c-5,2.9-8,8.1-8,13.9v64.8c0,5.7,3,11,8,13.9l56.1,32.4c5,2.9,11,2.9,16,0l56.1-32.4
		C152.2,139.4,155.2,134.1,155.2,128.4z"/>
</g>
</svg>
