<?xml version="1.0" encoding="utf-8"?>
<!-- Generator: Adobe Illustrator 19.0.0, SVG Export Plug-In . SVG Version: 6.00 Build 0)  -->
<svg version="1.1" id="Layer_2_1_" xmlns="http://www.w3.org/2000/svg" xmlns:xlink="http://www.w3.org/1999/xlink" x="0px" y="0px"
	 viewBox="0 0 166.3 192" style="enable-background:new 0 0 166.3 192;" xml:space="preserve">
<style type="text/css">
	.st0{fill:#EB5B5C;}
</style>
<path class="st0" d="M158.3,43.4L91.2,4.6c-5-2.9-11-2.9-16,0L8,43.4c-5,2.9-8,8.1-8,13.9v77.5c0,5.7,3,11,8,13.9l67.1,38.8
	c5,2.9,11,2.9,16,0l67.1-38.8c5-2.9,8-8.1,8-13.9V57.2C166.3,51.5,163.2,46.2,158.3,43.4z M155.2,128.4c0,5.7-3,11-7.9,14
	l-56.1,32.4c-5,2.9-11,2.9-16,0l-56.1-32.4c-5-2.9-8-8.2-8-13.9V63.7c0-5.8,3-11,8-13.9l56-32.4c5-2.9,11-2.9,16,0l56.1,32.3
	c5,2.9,8,8.2,8,13.9V128.4z"/>
</svg>
