<?xml version="1.0" encoding="UTF-8" standalone="no"?>
<!-- Generator: Adobe Illustrator 19.0.0, SVG Export Plug-In . SVG Version: 6.00 Build 0)  -->

<svg
   xmlns:dc="http://purl.org/dc/elements/1.1/"
   xmlns:cc="http://creativecommons.org/ns#"
   xmlns:rdf="http://www.w3.org/1999/02/22-rdf-syntax-ns#"
   xmlns:svg="http://www.w3.org/2000/svg"
   xmlns="http://www.w3.org/2000/svg"
   xmlns:sodipodi="http://sodipodi.sourceforge.net/DTD/sodipodi-0.dtd"
   xmlns:inkscape="http://www.inkscape.org/namespaces/inkscape"
   version="1.1"
   x="0px"
   y="0px"
   viewBox="0 0 166.3 192"
   style="enable-background:new 0 0 166.3 192;"
   xml:space="preserve"
   id="svg7"
   sodipodi:docname="slot_border_dark.svg"
   inkscape:version="0.92.2 5c3e80d, 2017-08-06"><metadata
     id="metadata13"><rdf:RDF><cc:Work
         rdf:about=""><dc:format>image/svg+xml</dc:format><dc:type
           rdf:resource="http://purl.org/dc/dcmitype/StillImage" /></cc:Work></rdf:RDF></metadata><defs
     id="defs11" /><sodipodi:namedview
     pagecolor="#ffffff"
     bordercolor="#666666"
     borderopacity="1"
     objecttolerance="10"
     gridtolerance="10"
     guidetolerance="10"
     inkscape:pageopacity="0"
     inkscape:pageshadow="2"
     inkscape:window-width="1440"
     inkscape:window-height="767"
     id="namedview9"
     showgrid="false"
     inkscape:zoom="1.2291667"
     inkscape:cx="-62.477117"
     inkscape:cy="96"
     inkscape:window-x="0"
     inkscape:window-y="1"
     inkscape:window-maximized="1"
     inkscape:current-layer="svg7" /><style
     type="text/css"
     id="style2">
	.st0{fill:#F5F5F5;}
</style><g
     id="Layer_1" /><g
     id="Layer_2"
     style="fill:#092642;fill-opacity:1"><path
       id="XMLID_3_"
       class="st0"
       d="M166.3,144l-83.1,48L0,144l0-96L83.1,0l83.1,48V144z M155.2,128.4V63.6c0-5.7-3-11-8-13.9   L91.1,17.4c-5-2.9-11-2.9-16,0L19.1,49.8c-5,2.9-8,8.1-8,13.9v64.8c0,5.7,3,11,8,13.9l56.1,32.4c5,2.9,11,2.9,16,0l56.1-32.4   C152.2,139.4,155.2,134.1,155.2,128.4z"
       style="fill:#092642;fill-opacity:1" /></g></svg>