<?xml version="1.0" encoding="utf-8"?>
<!-- Generator: Adobe Illustrator 19.0.0, SVG Export Plug-In . SVG Version: 6.00 Build 0)  -->
<svg version="1.1" id="Layer_1" xmlns="http://www.w3.org/2000/svg" xmlns:xlink="http://www.w3.org/1999/xlink" x="0px" y="0px"
	 viewBox="19 0.5 166 192" style="enable-background:new 19 0.5 166 192;" xml:space="preserve">
<style type="text/css">
	.st0{display:none;}
	.st1{display:inline;}
	.st2{fill:#F5F5F5;}
</style>
<g id="Layer_1_2_" class="st0">
	<g id="Layer_1_1_" class="st1">
	</g>
	<g id="Layer_2" class="st1">
		<path id="XMLID_3_" class="st2" d="M175.3,136l-83.1,48L9,136V40L92.1-8l83.1,48v96H175.3z M164.2,120.4V55.6c0-5.7-3-11-8-13.9
			L100.1,9.4c-5-2.9-11-2.9-16,0l-56,32.4c-5,2.9-8,8.1-8,13.9v64.8c0,5.7,3,11,8,13.9l56.1,32.4c5,2.9,11,2.9,16,0l56.1-32.4
			C161.2,131.4,164.2,126.1,164.2,120.4z"/>
	</g>
</g>
<g id="Layer_2_1_">
	<path class="st2" d="M177.7,43.2L109,2.5c-4.5-2.7-9.8-2.7-14.3,0L26.2,43.2C21.7,45.9,19,50.6,19,56v81.3c0,5.2,2.7,10.1,7.2,12.8
		l68.6,40.7c4.5,2.7,9.8,2.7,14.3,0l68.6-40.7c4.5-2.7,7.2-7.4,7.2-12.8V55.9C184.8,50.6,182.1,45.8,177.7,43.2z M166.4,126.3
		c0,5.2-2.7,10.1-7.1,12.9l-50.2,29.8c-4.5,2.7-9.8,2.7-14.3,0l-50.2-29.8c-4.5-2.7-7.2-7.5-7.2-12.8V66.8c0-5.3,2.7-10.1,7.2-12.8
		l50.1-29.8c4.5-2.7,9.8-2.7,14.3,0L159.2,54c4.5,2.7,7.2,7.5,7.2,12.8L166.4,126.3L166.4,126.3z"/>
</g>
</svg>
