<svg id="Layer_1" data-name="Layer 1" xmlns="http://www.w3.org/2000/svg" viewBox="0 0 2000 360"><defs><style>.cls-1{fill:#3477a8;stroke:#092642;stroke-linecap:round;stroke-linejoin:round;stroke-width:8px;}</style></defs><title>title</title><path class="cls-1" d="M143.87,32.34,249.34,137.81,217.7,169.45l52.73,52.74L165,327.66H38.4V32.34Zm-42.19,232h42.19l42.19-42.19-52.74-52.74L165,137.81,122.78,95.62h-21.1Z"/><path class="cls-1" d="M288.08,32.34h63.28v232H477.93v63.28H288.08Z"/><path class="cls-1" d="M637.68,32.34H701V327.66H637.68v-21.1l-42.19,42.19L490,243.28V32.34H553.3V222.19l42.19,42.19,42.19-42.19Z"/><path class="cls-1" d="M922.72,32.34V95.62H796.16v52.74H922.72v63.28H796.16v52.74H922.72v63.28H732.87V32.34Z"/><path class="cls-1" d="M955.64,32.34H1082.2l84.37,84.38v42.19l-84.37,84.37h-63.28v84.38H955.64Zm63.28,63.28V180h42.19l42.18-42.19-42.18-42.19Z"/><path class="cls-1" d="M1189.67,32.34h126.56l84.38,84.38v42.19l-73.83,73.82,94.92,94.93h-84.38L1253,243.28v84.38h-63.28ZM1253,95.62V180h42.19l42.18-42.19-42.18-42.19Z"/><path class="cls-1" d="M1441.52,32.34h63.28V327.66h-63.28Z"/><path class="cls-1" d="M1687.38,327.66V137.81l-42.19-42.19L1603,137.81V327.66h-63.28V116.72L1645.19,11.25l105.47,105.47V327.66Z"/><path class="cls-1" d="M1898.32,95.62v232H1835v-232h-63.28V32.34H1961.6V95.62Z"/></svg>